<svg width="306" height="417" viewBox="0 0 306 417" fill="none" xmlns="http://www.w3.org/2000/svg">
<path d="M302.793 208.325V208.33C302.793 248.927 293.935 288.575 277.381 322.253C260.826 355.934 237.358 382.053 210.045 397.432C182.758 412.796 152.806 416.788 123.924 408.979C95.0174 401.163 68.3279 381.831 47.3015 353.248C26.2734 324.664 11.9033 288.169 6.07801 248.36C0.253166 208.553 3.24562 167.297 14.663 129.828C26.0819 92.3538 45.3883 60.4319 70.0488 38.0329C94.6966 15.6455 123.561 3.78976 152.986 3.78977L152.994 3.78974C172.553 3.72084 191.96 8.90467 210.109 19.0865C228.265 29.2715 244.816 44.2656 258.785 63.2547C272.755 82.244 283.852 104.835 291.413 129.742C298.975 154.648 302.845 181.356 302.793 208.325Z" fill="white" stroke="#2C52B7" stroke-width="5"/>
<path d="M152.986 416.289C112.411 416.289 73.4989 394.379 44.8085 355.378C16.1181 316.378 6.00924e-07 263.482 6.00924e-07 208.327C-0.00268085 167.191 8.96862 126.977 25.7794 92.7723C42.5901 58.5673 66.4852 31.9071 94.4427 16.1633C122.4 0.41948 153.164 -3.70077 182.845 4.3236C212.525 12.348 239.788 32.1566 261.186 61.2442C282.584 90.3319 297.156 127.392 303.059 167.738C308.962 208.084 305.931 249.903 294.35 287.908C282.768 325.912 263.155 358.394 237.993 381.245C212.83 404.097 183.247 416.292 152.986 416.289ZM152.986 2.20805C122.996 2.20805 93.68 14.2967 68.7446 36.9453C43.8092 59.594 24.3744 91.7853 12.8979 129.449C1.4214 167.112 -1.58138 208.556 4.2693 248.539C10.12 288.522 24.5613 325.249 45.7672 354.075C66.973 382.901 93.9909 402.532 123.404 410.485C152.818 418.438 183.305 414.357 211.012 398.756C238.719 383.155 262.4 356.737 279.061 322.84C295.723 288.944 304.616 249.093 304.616 208.327C304.558 153.685 288.565 101.303 260.141 62.665C231.717 24.0271 193.183 2.28606 152.986 2.20805Z" fill="#2C52B7"/>
<path d="M178.948 345.222C178.795 345.219 178.647 345.148 178.528 345.019C178.388 344.867 178.298 344.646 178.278 344.405C178.258 344.163 178.308 343.92 178.419 343.729C178.751 342.741 179.037 341.726 179.273 340.688C181.456 332.284 187.191 310.187 200.017 313.468C200.844 309.284 204.897 291.702 215.662 285.288C222.59 281.142 230.847 282.579 240.202 289.564C240.88 283.851 244.351 261.569 257.935 248.079C268.51 237.592 282.624 234.735 299.964 239.619C300.052 239.643 300.135 239.691 300.208 239.759C300.282 239.826 300.345 239.913 300.395 240.014C300.444 240.115 300.478 240.228 300.495 240.347C300.511 240.466 300.511 240.588 300.493 240.707C300.451 240.945 300.343 241.153 300.192 241.287C300.041 241.42 299.857 241.47 299.68 241.425C282.8 236.652 269.039 239.398 258.79 249.571C243.673 264.573 241.476 290.854 241.463 291.112C241.45 291.266 241.41 291.414 241.346 291.542C241.283 291.67 241.197 291.776 241.097 291.849C240.997 291.922 240.885 291.96 240.771 291.96C240.658 291.96 240.546 291.922 240.446 291.849C231.132 284.625 222.997 282.985 216.259 287.002C204.884 293.784 201.264 314.647 201.237 314.794C201.197 315.031 201.089 315.236 200.939 315.366C200.785 315.497 200.601 315.543 200.423 315.495C188.303 311.643 182.907 332.45 180.616 341.296C180.366 342.545 180.001 343.747 179.531 344.872C179.462 344.99 179.372 345.083 179.271 345.144C179.169 345.205 179.059 345.232 178.948 345.222Z" fill="#2C52B7"/>
<path d="M183.235 372.054H122.74L138.589 246.492H167.386L183.235 372.054Z" fill="white"/>
<path d="M183.235 372.975H122.74C122.642 372.978 122.544 372.95 122.454 372.895C122.364 372.839 122.285 372.758 122.221 372.655C122.158 372.553 122.112 372.433 122.086 372.303C122.061 372.174 122.058 372.038 122.076 371.907L137.925 246.344C137.95 246.129 138.031 245.934 138.153 245.792C138.274 245.65 138.429 245.572 138.589 245.57H167.386C167.546 245.572 167.701 245.65 167.822 245.792C167.944 245.934 168.025 246.129 168.05 246.344L183.899 371.907C183.917 372.038 183.914 372.174 183.888 372.303C183.863 372.433 183.817 372.553 183.754 372.655C183.69 372.758 183.61 372.839 183.521 372.895C183.431 372.95 183.333 372.978 183.235 372.975ZM123.581 371.133H182.448L166.83 247.413H139.172L123.581 371.133Z" fill="url(#paint0_linear_618_167)"/>
<path d="M168.225 266.433H136.988L133.232 246.031H171.98L168.225 266.433Z" fill="white"/>
<path d="M168.226 267.299H137.043C136.891 267.298 136.744 267.228 136.624 267.102C136.504 266.975 136.417 266.798 136.379 266.599L132.65 246.252C132.623 246.119 132.62 245.979 132.641 245.845C132.662 245.71 132.707 245.584 132.772 245.478C132.832 245.363 132.911 245.269 133.003 245.205C133.095 245.141 133.198 245.108 133.301 245.109H171.968C172.071 245.108 172.174 245.141 172.266 245.205C172.358 245.269 172.437 245.363 172.497 245.478C172.561 245.584 172.607 245.709 172.63 245.844C172.654 245.978 172.655 246.118 172.632 246.252L168.877 266.672C168.829 266.855 168.741 267.014 168.624 267.126C168.508 267.238 168.369 267.299 168.226 267.299ZM137.518 265.456H167.697L171.114 247.026H134.101L137.518 265.456Z" fill="url(#paint1_linear_618_167)"/>
<path d="M117.587 182.344C117.587 182.344 101.21 196.258 95.5154 219.461C89.8211 242.664 102.796 287.467 102.796 287.467L132.623 243.568L117.587 182.344Z" fill="white"/>
<path d="M102.822 288.383H102.7C102.588 288.358 102.483 288.294 102.395 288.197C102.307 288.1 102.239 287.974 102.198 287.83C101.656 285.987 89.2098 242.419 94.904 219.179C100.598 195.939 117.084 181.73 117.247 181.582C117.341 181.523 117.442 181.492 117.545 181.492C117.649 181.492 117.75 181.523 117.844 181.582C117.939 181.635 118.024 181.715 118.094 181.817C118.164 181.919 118.218 182.04 118.25 182.172L133.232 243.34C133.272 243.496 133.281 243.664 133.257 243.826C133.233 243.989 133.178 244.139 133.096 244.262L103.269 288.162C103.145 288.308 102.986 288.387 102.822 288.383ZM117.247 183.775C114.034 186.779 100.978 199.901 96.192 219.732C91.2027 240.005 100.964 278.025 103.066 285.747L131.849 243.359L117.247 183.775Z" fill="url(#paint2_linear_618_167)"/>
<path d="M188.385 182.344C188.385 182.344 204.763 196.258 210.457 219.461C216.151 242.664 203.177 287.467 203.177 287.467L173.35 243.568L188.385 182.344Z" fill="white"/>
<path d="M203.149 288.384C203.055 288.386 202.961 288.361 202.875 288.31C202.788 288.259 202.711 288.184 202.647 288.089L172.82 244.189C172.739 244.067 172.684 243.916 172.66 243.754C172.636 243.592 172.644 243.424 172.685 243.268L187.693 182.063C187.726 181.93 187.779 181.81 187.85 181.708C187.92 181.606 188.005 181.526 188.1 181.473C188.193 181.414 188.295 181.383 188.398 181.383C188.501 181.383 188.603 181.414 188.696 181.473C188.859 181.62 205.345 195.83 211.04 219.07C216.734 242.31 204.261 285.878 203.746 287.721C203.705 287.864 203.637 287.991 203.549 288.088C203.461 288.185 203.356 288.249 203.244 288.274L203.149 288.384ZM174.149 243.342L202.932 285.73C205.034 278.008 214.795 240.061 209.806 219.715C204.952 199.884 191.964 186.762 188.751 183.758L174.149 243.342Z" fill="url(#paint3_linear_618_167)"/>
<path d="M179.369 253.778C187.504 227.294 192.642 188.905 192.642 146.185C192.642 81.4406 166.367 47.7325 156.389 37.2644C155.306 36.1257 153.976 35.5078 152.606 35.5078C151.237 35.5078 149.907 36.1257 148.824 37.2644C138.845 47.7325 112.57 81.4959 112.57 146.185C112.57 188.905 117.695 227.276 125.843 253.778C125.843 253.778 133.978 259.307 152.606 259.307C171.235 259.307 179.369 253.778 179.369 253.778Z" fill="#2C52B7"/>
<path d="M148.824 37.2644C136.578 50.5264 126.998 67.7835 120.977 87.4303H184.237C178.215 67.7835 168.636 50.5264 156.389 37.2644C155.306 36.1257 153.976 35.5078 152.607 35.5078C151.238 35.5078 149.907 36.1257 148.824 37.2644Z" fill="white"/>
<path d="M184.236 88.3501H120.975C120.864 88.3493 120.755 88.3115 120.657 88.24C120.56 88.1684 120.476 88.0653 120.415 87.9397C120.353 87.8142 120.315 87.6699 120.304 87.5198C120.293 87.3696 120.309 87.218 120.352 87.0784C126.397 67.2716 136.05 49.8813 148.403 36.5439C149.606 35.2796 151.084 34.5938 152.606 34.5938C154.127 34.5938 155.605 35.2796 156.808 36.5439C169.161 49.8813 178.814 67.2716 184.859 87.0784C184.902 87.218 184.918 87.3696 184.907 87.5198C184.896 87.6699 184.858 87.8142 184.796 87.9397C184.735 88.0653 184.652 88.1684 184.554 88.24C184.456 88.3115 184.347 88.3493 184.236 88.3501ZM122.006 86.5071H183.205C177.23 67.5195 167.875 50.8502 155.981 37.9999C155.013 36.9747 153.82 36.418 152.592 36.418C151.364 36.418 150.171 36.9747 149.203 37.9999C137.316 50.8497 127.969 67.52 122.006 86.5071Z" fill="url(#paint4_linear_618_167)"/>
<path d="M154.179 168.744C167.665 168.744 178.597 153.883 178.597 135.551C178.597 117.22 167.665 102.359 154.179 102.359C140.694 102.359 129.762 117.22 129.762 135.551C129.762 153.883 140.694 168.744 154.179 168.744Z" fill="white"/>
<path d="M154.179 169.626C149.215 169.629 144.362 167.632 140.233 163.885C136.105 160.139 132.886 154.813 130.984 148.579C129.083 142.346 128.584 135.487 129.551 128.868C130.518 122.249 132.907 116.169 136.416 111.397C139.925 106.624 144.396 103.373 149.265 102.055C154.133 100.738 159.18 101.412 163.766 103.993C168.353 106.575 172.273 110.947 175.031 116.558C177.789 122.168 179.261 128.764 179.261 135.512C179.254 144.553 176.61 153.222 171.908 159.617C167.206 166.012 160.83 169.611 154.179 169.626ZM154.179 103.278C149.483 103.275 144.891 105.165 140.985 108.709C137.079 112.254 134.034 117.294 132.236 123.191C130.437 129.088 129.966 135.578 130.882 141.84C131.797 148.102 134.058 153.853 137.379 158.368C140.7 162.882 144.931 165.956 149.538 167.2C154.144 168.445 158.918 167.804 163.257 165.359C167.595 162.915 171.303 158.776 173.91 153.466C176.518 148.156 177.908 141.915 177.905 135.53C177.898 126.98 175.396 118.782 170.948 112.735C166.5 106.689 160.47 103.288 154.179 103.278Z" fill="url(#paint5_linear_618_167)"/>
<path d="M154.178 156.021C162.497 156.021 169.241 146.854 169.241 135.546C169.241 124.238 162.497 115.07 154.178 115.07C145.859 115.07 139.115 124.238 139.115 135.546C139.115 146.854 145.859 156.021 154.178 156.021Z" fill="url(#paint6_linear_618_167)"/>
<path d="M154.18 156.942C151.067 156.942 148.024 155.688 145.435 153.336C142.846 150.985 140.829 147.644 139.638 143.734C138.446 139.824 138.135 135.522 138.742 131.371C139.349 127.22 140.848 123.408 143.05 120.415C145.251 117.423 148.056 115.385 151.109 114.56C154.163 113.734 157.327 114.158 160.204 115.777C163.08 117.397 165.538 120.139 167.268 123.658C168.997 127.177 169.921 131.314 169.921 135.545C169.921 141.22 168.262 146.663 165.31 150.675C162.358 154.688 158.355 156.942 154.18 156.942ZM154.18 115.991C151.335 115.991 148.554 117.138 146.188 119.287C143.823 121.435 141.979 124.489 140.89 128.062C139.801 131.635 139.517 135.567 140.072 139.36C140.627 143.153 141.997 146.638 144.008 149.372C146.02 152.107 148.583 153.969 151.374 154.724C154.164 155.478 157.056 155.091 159.685 153.611C162.313 152.131 164.56 149.625 166.141 146.409C167.721 143.193 168.565 139.413 168.565 135.545C168.561 130.361 167.045 125.39 164.348 121.724C161.651 118.058 157.994 115.996 154.18 115.991Z" fill="url(#paint7_linear_618_167)"/>
<path d="M166.122 134.608C165.961 134.611 165.805 134.533 165.683 134.391C165.561 134.249 165.481 134.051 165.458 133.834C163.912 119.496 154.612 120.123 154.219 120.16C154.042 120.17 153.869 120.088 153.735 119.93C153.601 119.773 153.517 119.551 153.5 119.312C153.493 119.192 153.503 119.071 153.531 118.956C153.558 118.842 153.602 118.736 153.66 118.645C153.719 118.554 153.789 118.479 153.869 118.426C153.949 118.373 154.035 118.342 154.124 118.335C154.232 118.335 165.065 117.524 166.787 133.576C166.81 133.816 166.763 134.058 166.657 134.25C166.551 134.443 166.393 134.572 166.217 134.608H166.122Z" fill="white"/>
<path d="M148.917 122.098C148.816 122.096 148.716 122.063 148.624 122.003C148.533 121.942 148.452 121.855 148.389 121.748C148.279 121.554 148.231 121.31 148.254 121.068C148.276 120.827 148.369 120.607 148.511 120.458C149.335 119.634 150.293 119.09 151.304 118.873C151.483 118.846 151.663 118.917 151.804 119.068C151.946 119.22 152.039 119.44 152.063 119.683C152.074 119.802 152.068 119.923 152.045 120.038C152.021 120.154 151.982 120.262 151.927 120.356C151.873 120.45 151.806 120.529 151.729 120.588C151.652 120.646 151.567 120.683 151.48 120.697C150.705 120.865 149.97 121.282 149.338 121.913C149.216 122.035 149.068 122.099 148.917 122.098Z" fill="white"/>
<path d="M176.412 244.875H176.195C176.027 244.795 175.889 244.628 175.81 244.411C175.731 244.194 175.719 243.943 175.775 243.713C179.99 225.497 183.399 206.955 185.984 188.185C186 188.063 186.033 187.948 186.082 187.844C186.131 187.741 186.194 187.652 186.269 187.581C186.343 187.511 186.427 187.462 186.515 187.436C186.603 187.409 186.695 187.407 186.784 187.429C186.873 187.451 186.958 187.496 187.034 187.562C187.11 187.629 187.176 187.715 187.227 187.816C187.279 187.917 187.315 188.031 187.335 188.151C187.354 188.271 187.356 188.395 187.34 188.516C184.756 207.372 181.328 225.996 177.076 244.285C177.027 244.467 176.936 244.623 176.816 244.729C176.696 244.836 176.555 244.886 176.412 244.875Z" fill="white"/>
<path d="M156.47 296.459C156.302 296.455 156.14 296.366 156.017 296.21C155.895 296.053 155.819 295.84 155.806 295.611L154.45 272.058C154.442 271.938 154.453 271.817 154.48 271.702C154.508 271.588 154.552 271.482 154.61 271.391C154.668 271.3 154.739 271.226 154.819 271.172C154.898 271.119 154.985 271.088 155.073 271.081C155.162 271.071 155.251 271.085 155.335 271.123C155.419 271.16 155.497 271.22 155.564 271.299C155.631 271.378 155.686 271.475 155.725 271.583C155.764 271.691 155.787 271.809 155.792 271.929L157.148 295.464C157.155 295.585 157.145 295.707 157.118 295.823C157.09 295.938 157.046 296.045 156.988 296.138C156.93 296.23 156.859 296.306 156.78 296.361C156.7 296.417 156.613 296.45 156.524 296.459H156.47Z" fill="url(#paint8_linear_618_167)"/>
<path d="M142.506 310.206H142.411C142.233 310.173 142.072 310.047 141.962 309.853C141.853 309.66 141.805 309.415 141.828 309.173L144.187 284.349C144.21 284.104 144.304 283.882 144.448 283.732C144.591 283.582 144.773 283.515 144.953 283.547C145.133 283.579 145.296 283.706 145.406 283.901C145.517 284.097 145.566 284.344 145.543 284.588L143.184 309.413C143.161 309.634 143.079 309.837 142.954 309.983C142.83 310.129 142.67 310.208 142.506 310.206Z" fill="url(#paint9_linear_618_167)"/>
<path d="M164.89 315.479C164.729 315.481 164.573 315.404 164.451 315.261C164.329 315.119 164.249 314.921 164.226 314.705L161.758 294.432C161.731 294.19 161.773 293.944 161.877 293.744C161.981 293.545 162.137 293.408 162.314 293.363C162.492 293.325 162.673 293.383 162.82 293.524C162.967 293.665 163.067 293.878 163.101 294.118L165.568 314.391C165.595 314.63 165.553 314.875 165.449 315.071C165.345 315.268 165.188 315.401 165.012 315.442L164.89 315.479Z" fill="url(#paint10_linear_618_167)"/>
<path d="M84.4259 147.621C84.2472 147.616 84.0768 147.517 83.9505 147.345C83.8241 147.174 83.7515 146.942 83.748 146.699V140.82C83.748 140.576 83.8195 140.341 83.9466 140.168C84.0737 139.996 84.2461 139.898 84.4259 139.898C84.6057 139.898 84.7782 139.996 84.9053 140.168C85.0324 140.341 85.1038 140.576 85.1038 140.82V146.699C85.1038 146.943 85.0324 147.178 84.9053 147.351C84.7782 147.523 84.6057 147.621 84.4259 147.621Z" fill="#2C52B7"/>
<path d="M84.4259 159.895C84.2461 159.895 84.0737 159.797 83.9466 159.625C83.8195 159.452 83.748 159.217 83.748 158.973V153.039C83.748 152.794 83.8195 152.56 83.9466 152.387C84.0737 152.214 84.2461 152.117 84.4259 152.117C84.6057 152.117 84.7782 152.214 84.9053 152.387C85.0324 152.56 85.1038 152.794 85.1038 153.039V158.918C85.1094 159.043 85.096 159.169 85.0644 159.287C85.0328 159.406 84.9838 159.514 84.9203 159.605C84.8568 159.697 84.7801 159.77 84.6951 159.82C84.6101 159.869 84.5185 159.895 84.4259 159.895Z" fill="#2C52B7"/>
<path d="M91.1084 150.804H86.7835C86.6037 150.804 86.4313 150.707 86.3041 150.534C86.177 150.361 86.1056 150.127 86.1056 149.882C86.1056 149.638 86.177 149.404 86.3041 149.231C86.4313 149.058 86.6037 148.961 86.7835 148.961H91.1084C91.2882 148.961 91.4606 149.058 91.5877 149.231C91.7149 149.404 91.7863 149.638 91.7863 149.882C91.7863 150.127 91.7149 150.361 91.5877 150.534C91.4606 150.707 91.2882 150.804 91.1084 150.804Z" fill="#2C52B7"/>
<path d="M82.0789 150.804H77.7404C77.5606 150.804 77.3882 150.707 77.2611 150.534C77.1339 150.361 77.0625 150.127 77.0625 149.882C77.066 149.64 77.1385 149.408 77.2649 149.236C77.3913 149.064 77.5617 148.966 77.7404 148.961H82.0789C82.2576 148.966 82.428 149.064 82.5544 149.236C82.6808 149.408 82.7533 149.64 82.7568 149.882C82.7568 150.127 82.6853 150.361 82.5582 150.534C82.4311 150.707 82.2587 150.804 82.0789 150.804Z" fill="#2C52B7"/>
<path d="M42.6525 171.91C42.4727 171.91 42.3003 171.812 42.1732 171.64C42.046 171.467 41.9746 171.232 41.9746 170.988V165.109C41.9746 164.865 42.046 164.63 42.1732 164.457C42.3003 164.285 42.4727 164.188 42.6525 164.188C42.8323 164.188 43.0047 164.285 43.1318 164.457C43.259 164.63 43.3304 164.865 43.3304 165.109V170.988C43.3304 171.232 43.259 171.467 43.1318 171.64C43.0047 171.812 42.8323 171.91 42.6525 171.91Z" fill="#2C52B7"/>
<path d="M42.6525 184.199C42.4727 184.199 42.3003 184.102 42.1732 183.929C42.046 183.756 41.9746 183.522 41.9746 183.277V177.398C41.9746 177.154 42.046 176.919 42.1732 176.746C42.3003 176.574 42.4727 176.477 42.6525 176.477C42.8323 176.477 43.0047 176.574 43.1318 176.746C43.259 176.919 43.3304 177.154 43.3304 177.398V183.277C43.3304 183.522 43.259 183.756 43.1318 183.929C43.0047 184.102 42.8323 184.199 42.6525 184.199Z" fill="#2C52B7"/>
<path d="M49.3388 175.155H45.0138C44.834 175.155 44.6616 175.058 44.5345 174.886C44.4074 174.713 44.3359 174.478 44.3359 174.234C44.3359 173.99 44.4074 173.755 44.5345 173.582C44.6616 173.41 44.834 173.312 45.0138 173.312H49.3388C49.5185 173.312 49.691 173.41 49.8181 173.582C49.9452 173.755 50.0166 173.99 50.0166 174.234C50.0166 174.478 49.9452 174.713 49.8181 174.886C49.691 175.058 49.5185 175.155 49.3388 175.155Z" fill="#2C52B7"/>
<path d="M40.2938 175.155H35.9689C35.7891 175.155 35.6167 175.058 35.4896 174.886C35.3624 174.713 35.291 174.478 35.291 174.234C35.291 173.99 35.3624 173.755 35.4896 173.582C35.6167 173.41 35.7891 173.312 35.9689 173.312H40.2938C40.4736 173.312 40.646 173.41 40.7732 173.582C40.9003 173.755 40.9717 173.99 40.9717 174.234C40.9717 174.478 40.9003 174.713 40.7732 174.886C40.646 175.058 40.4736 175.155 40.2938 175.155Z" fill="#2C52B7"/>
<path d="M218.238 131.386C218.059 131.386 217.886 131.289 217.759 131.116C217.632 130.943 217.561 130.709 217.561 130.465V124.586C217.561 124.341 217.632 124.107 217.759 123.934C217.886 123.761 218.059 123.664 218.238 123.664C218.418 123.664 218.591 123.761 218.718 123.934C218.845 124.107 218.916 124.341 218.916 124.586V130.465C218.916 130.709 218.845 130.943 218.718 131.116C218.591 131.289 218.418 131.386 218.238 131.386Z" fill="#2C52B7"/>
<path d="M218.238 143.66C218.059 143.66 217.886 143.562 217.759 143.39C217.632 143.217 217.561 142.982 217.561 142.738V136.859C217.564 136.616 217.637 136.384 217.763 136.213C217.889 136.041 218.06 135.942 218.238 135.938C218.418 135.938 218.591 136.035 218.718 136.207C218.845 136.38 218.916 136.615 218.916 136.859V142.738C218.916 142.982 218.845 143.217 218.718 143.39C218.591 143.562 218.418 143.66 218.238 143.66Z" fill="#2C52B7"/>
<path d="M224.923 134.609H220.598C220.418 134.609 220.246 134.512 220.118 134.339C219.991 134.166 219.92 133.932 219.92 133.687C219.92 133.443 219.991 133.208 220.118 133.036C220.246 132.863 220.418 132.766 220.598 132.766H224.923C225.103 132.766 225.275 132.863 225.402 133.036C225.529 133.208 225.601 133.443 225.601 133.687C225.601 133.932 225.529 134.166 225.402 134.339C225.275 134.512 225.103 134.609 224.923 134.609Z" fill="#2C52B7"/>
<path d="M215.893 134.609H211.569C211.389 134.609 211.216 134.512 211.089 134.339C210.962 134.166 210.891 133.932 210.891 133.687C210.891 133.443 210.962 133.208 211.089 133.036C211.216 132.863 211.389 132.766 211.569 132.766H215.893C216.073 132.766 216.246 132.863 216.373 133.036C216.5 133.208 216.571 133.443 216.571 133.687C216.568 133.93 216.495 134.162 216.369 134.333C216.243 134.505 216.072 134.604 215.893 134.609Z" fill="#2C52B7"/>
<path d="M267.143 165.769C266.963 165.769 266.79 165.672 266.663 165.499C266.536 165.326 266.465 165.092 266.465 164.847V158.968C266.465 158.724 266.536 158.49 266.663 158.317C266.79 158.144 266.963 158.047 267.143 158.047C267.323 158.047 267.495 158.144 267.622 158.317C267.749 158.49 267.821 158.724 267.821 158.968V164.847C267.821 165.092 267.749 165.326 267.622 165.499C267.495 165.672 267.323 165.769 267.143 165.769Z" fill="#2C52B7"/>
<path d="M267.143 178.05C266.963 178.05 266.79 177.953 266.663 177.78C266.536 177.607 266.465 177.373 266.465 177.129V171.25C266.465 171.005 266.536 170.771 266.663 170.598C266.79 170.425 266.963 170.328 267.143 170.328C267.321 170.333 267.492 170.431 267.618 170.603C267.745 170.775 267.817 171.007 267.821 171.25V177.129C267.821 177.373 267.749 177.607 267.622 177.78C267.495 177.953 267.323 178.05 267.143 178.05Z" fill="#2C52B7"/>
<path d="M273.813 168.976H269.488C269.31 168.971 269.139 168.872 269.013 168.701C268.887 168.529 268.814 168.297 268.811 168.054C268.811 167.81 268.882 167.576 269.009 167.403C269.136 167.23 269.309 167.133 269.488 167.133H273.813C273.993 167.133 274.166 167.23 274.293 167.403C274.42 167.576 274.491 167.81 274.491 168.054C274.491 168.299 274.42 168.533 274.293 168.706C274.166 168.879 273.993 168.976 273.813 168.976Z" fill="#2C52B7"/>
<path d="M264.784 168.976H260.459C260.279 168.976 260.107 168.879 259.98 168.706C259.853 168.533 259.781 168.299 259.781 168.054C259.781 167.81 259.853 167.576 259.98 167.403C260.107 167.23 260.279 167.133 260.459 167.133H264.784C264.964 167.133 265.136 167.23 265.263 167.403C265.391 167.576 265.462 167.81 265.462 168.054C265.462 168.299 265.391 168.533 265.263 168.706C265.136 168.879 264.964 168.976 264.784 168.976Z" fill="#2C52B7"/>
<path d="M236.123 75.7768C235.943 75.7768 235.771 75.6797 235.644 75.5069C235.517 75.3341 235.445 75.0997 235.445 74.8553V68.9762C235.445 68.7318 235.517 68.4974 235.644 68.3246C235.771 68.1518 235.943 68.0547 236.123 68.0547C236.303 68.0547 236.475 68.1518 236.603 68.3246C236.73 68.4974 236.801 68.7318 236.801 68.9762V74.8553C236.801 75.0997 236.73 75.3341 236.603 75.5069C236.475 75.6797 236.303 75.7768 236.123 75.7768Z" fill="#2C52B7"/>
<path d="M236.123 88.0737C235.943 88.0737 235.771 87.9766 235.644 87.8038C235.517 87.6309 235.445 87.3966 235.445 87.1522V81.2731C235.445 81.0287 235.517 80.7943 235.644 80.6215C235.771 80.4486 235.943 80.3516 236.123 80.3516C236.303 80.3516 236.475 80.4486 236.603 80.6215C236.73 80.7943 236.801 81.0287 236.801 81.2731V87.1522C236.801 87.3966 236.73 87.6309 236.603 87.8038C236.475 87.9766 236.303 88.0737 236.123 88.0737Z" fill="#2C52B7"/>
<path d="M242.806 78.9836H238.481C238.301 78.9836 238.128 78.8865 238.001 78.7137C237.874 78.5409 237.803 78.3065 237.803 78.0621C237.803 77.8177 237.874 77.5833 238.001 77.4105C238.128 77.2377 238.301 77.1406 238.481 77.1406H242.806C242.985 77.1406 243.158 77.2377 243.285 77.4105C243.412 77.5833 243.483 77.8177 243.483 78.0621C243.483 78.3065 243.412 78.5409 243.285 78.7137C243.158 78.8865 242.985 78.9836 242.806 78.9836Z" fill="#2C52B7"/>
<path d="M233.765 78.9836H229.44C229.26 78.9836 229.087 78.8865 228.96 78.7137C228.833 78.5409 228.762 78.3065 228.762 78.0621C228.762 77.8177 228.833 77.5833 228.96 77.4105C229.087 77.2377 229.26 77.1406 229.44 77.1406H233.765C233.944 77.1406 234.117 77.2377 234.244 77.4105C234.371 77.5833 234.442 77.8177 234.442 78.0621C234.442 78.3065 234.371 78.5409 234.244 78.7137C234.117 78.8865 233.944 78.9836 233.765 78.9836Z" fill="#2C52B7"/>
<path d="M121.91 366.288H121.802C121.624 366.26 121.461 366.138 121.35 365.948C121.238 365.758 121.186 365.516 121.205 365.274C121.205 364.887 124.35 327.806 111.877 312.233C106.807 305.893 99.7703 303.921 90.9577 306.373C90.861 306.404 90.76 306.404 90.6633 306.372C90.5666 306.34 90.477 306.277 90.4018 306.188C90.3233 306.109 90.2592 306.006 90.2145 305.888C90.1699 305.77 90.1458 305.639 90.1442 305.506C90.1442 305.156 89.2766 270.49 73.1835 255.875C63.7744 247.323 51.003 247.102 35.2218 255.267C35.108 255.322 34.9855 255.336 34.8666 255.307C34.7476 255.278 34.6364 255.207 34.5439 255.101C34.4518 254.99 34.3822 254.848 34.3418 254.69C34.3015 254.532 34.2917 254.363 34.3134 254.198C34.3134 254.05 36.7267 238.938 30.5986 230.903C26.3415 225.374 18.966 224.36 8.68925 228.027C8.60287 228.061 8.51245 228.069 8.42346 228.054C8.33446 228.038 8.24873 227.998 8.17144 227.936C8.09415 227.874 8.02691 227.791 7.97376 227.693C7.92062 227.595 7.88267 227.483 7.86223 227.364C7.81649 227.129 7.84067 226.88 7.92951 226.669C8.01836 226.459 8.16469 226.304 8.33675 226.24C19.1016 222.406 26.9109 223.531 31.5476 229.594C36.9707 236.782 36.3335 248.65 35.859 252.981C51.5589 245.167 64.3303 245.609 73.9427 254.364C82.6739 262.325 86.9853 275.798 89.0596 285.694C90.3304 291.782 91.1346 298.032 91.4593 304.345C100.367 302.097 107.539 304.345 112.799 310.869C125.774 327.088 122.696 363.91 122.561 365.458C122.545 365.68 122.47 365.887 122.35 366.039C122.23 366.192 122.074 366.28 121.91 366.288Z" fill="#2C52B7"/>
<path d="M255.767 361.131C226.342 397.703 187.541 417.132 147.695 415.247C107.849 413.362 70.1357 390.314 42.6523 351.05C43.6421 350.35 44.6589 349.705 45.7028 349.207C72.5336 334.463 87.1218 364.854 87.1218 364.854C87.1218 364.854 94.1176 314.633 136.716 314.633C179.315 314.633 189.225 354.146 189.225 354.146C189.225 354.146 197.97 330.188 217.222 331.92C236.474 333.652 239.389 366.347 239.389 366.347C244.547 363.178 250.11 361.407 255.767 361.131Z" fill="white"/>
<path d="M152.986 416.288C132.251 416.408 111.718 410.746 92.6568 399.651C73.5956 388.556 56.4108 372.265 42.1648 351.784C42.092 351.68 42.0381 351.554 42.0075 351.416C41.9769 351.279 41.9704 351.133 41.9886 350.992C42.0025 350.85 42.042 350.715 42.1035 350.6C42.165 350.484 42.2466 350.391 42.3411 350.328C43.3506 349.605 44.3869 348.953 45.4458 348.375C59.573 340.579 70.3107 345.334 76.832 350.697C80.6588 353.869 84.038 357.944 86.8105 362.731C88.695 353.332 98.9176 313.727 136.717 313.727C174.068 313.727 186.718 344.302 189.321 352.079C191.788 346.55 200.831 329.595 217.263 331.014C234.685 332.507 239.132 358.935 239.918 365.017C244.941 362.165 250.301 360.567 255.74 360.299C255.878 360.297 256.013 360.35 256.128 360.452C256.244 360.553 256.335 360.699 256.391 360.87C256.443 361.044 256.455 361.236 256.426 361.42C256.397 361.604 256.328 361.772 256.228 361.902C228.031 396.949 191.193 416.354 152.986 416.288ZM43.7782 351.305C70.9713 389.706 108.051 412.295 147.233 414.329C186.416 416.364 224.655 397.685 253.923 362.215C249.029 362.719 244.235 364.371 239.756 367.099C239.659 367.167 239.552 367.203 239.444 367.203C239.335 367.203 239.228 367.167 239.132 367.099C239.038 367.027 238.957 366.926 238.896 366.805C238.834 366.684 238.795 366.545 238.779 366.399C238.141 360.72 236.856 355.211 234.97 350.07C230.902 339.252 224.964 333.483 217.25 332.783C198.662 331.198 189.985 354.272 189.904 354.493C189.842 354.654 189.748 354.788 189.633 354.879C189.518 354.971 189.386 355.016 189.253 355.009C189.118 354.999 188.989 354.934 188.883 354.822C188.776 354.71 188.697 354.557 188.656 354.383C188.548 353.996 178.352 315.496 136.784 315.496C95.2163 315.496 87.9087 364.445 87.7867 364.98C87.7615 365.16 87.6971 365.327 87.6019 365.457C87.5066 365.588 87.3848 365.676 87.2522 365.712C87.1195 365.748 86.9821 365.729 86.8575 365.657C86.7328 365.586 86.6268 365.465 86.5529 365.312C83.744 360.024 80.1796 355.561 76.0728 352.19C66.9891 344.818 56.8614 344.007 45.961 350.015C45.2424 350.383 44.5239 350.826 43.7782 351.305Z" fill="#2C52B7"/>
<path d="M205.318 371.137C205.223 371.138 205.129 371.11 205.042 371.056C204.955 371.002 204.878 370.923 204.817 370.824C196.085 357.72 188.547 354.439 183.68 353.997C180.77 353.636 177.845 354.389 175.234 356.172C175.082 356.275 174.907 356.298 174.743 356.234C174.58 356.171 174.44 356.026 174.352 355.829C174.263 355.632 174.232 355.397 174.265 355.17C174.297 354.944 174.392 354.742 174.529 354.605C174.664 354.495 188.371 343.382 205.82 369.589C205.904 369.723 205.959 369.887 205.977 370.062C205.996 370.237 205.978 370.415 205.926 370.576C205.874 370.738 205.789 370.876 205.681 370.975C205.574 371.074 205.448 371.13 205.318 371.137Z" fill="url(#paint11_linear_618_167)"/>
<path d="M236.15 327.697C235.979 327.698 235.814 327.611 235.689 327.454C235.563 327.297 235.485 327.081 235.472 326.85C235.472 326.112 234.577 308.936 243.606 296.993C250.25 288.184 260.445 284.664 273.894 286.562C273.983 286.574 274.07 286.61 274.149 286.667C274.228 286.725 274.297 286.803 274.354 286.897C274.411 286.991 274.453 287.1 274.479 287.216C274.505 287.332 274.513 287.455 274.505 287.576C274.496 287.697 274.469 287.814 274.427 287.921C274.385 288.028 274.327 288.123 274.258 288.2C274.189 288.277 274.109 288.335 274.023 288.37C273.938 288.405 273.848 288.417 273.759 288.405C260.73 286.562 250.9 289.916 244.555 298.32C235.987 309.673 236.828 326.555 236.841 326.721C236.849 326.842 236.838 326.963 236.811 327.079C236.783 327.195 236.74 327.302 236.682 327.394C236.624 327.487 236.553 327.563 236.473 327.618C236.393 327.673 236.307 327.706 236.217 327.716L236.15 327.697Z" fill="#2C52B7"/>
<path d="M77.741 103.499C74.0405 103.499 70.4232 102.007 67.3464 99.2128C64.2696 96.4182 61.8715 92.4461 60.4554 87.7988C59.0394 83.1515 58.6688 78.0377 59.3908 73.1042C60.1127 68.1706 61.8946 63.6389 64.5112 60.082C67.1278 56.5251 70.4616 54.1029 74.0909 53.1215C77.7202 52.1402 81.4821 52.6438 84.9009 54.5688C88.3196 56.4938 91.2417 59.7536 93.2975 63.9361C95.3534 68.1185 96.4507 73.0357 96.4507 78.0659C96.4471 84.8097 94.4747 91.2759 90.9667 96.0445C87.4588 100.813 82.702 103.494 77.741 103.499ZM77.741 54.4758C74.3087 54.4758 70.9535 55.8593 68.0996 58.4515C65.2458 61.0436 63.0215 64.7279 61.708 69.0384C60.3946 73.3489 60.0509 78.0921 60.7205 82.6681C61.3901 87.2442 63.0429 91.4475 65.4699 94.7467C67.8969 98.0458 70.989 100.293 74.3554 101.203C77.7217 102.113 81.211 101.646 84.382 99.8604C87.553 98.0749 90.2633 95.0513 92.1702 91.1719C94.0771 87.2925 95.0949 82.7316 95.0949 78.0659C95.0913 71.8109 93.2618 65.8135 90.0081 61.3906C86.7544 56.9676 82.3424 54.4807 77.741 54.4758Z" fill="#2C52B7"/>
<path d="M55.4652 292.185C55.3381 292.186 55.2136 292.137 55.1057 292.046C54.9978 291.955 54.911 291.824 54.8551 291.669C38.5858 245.595 14.7648 260.025 14.5343 260.173C14.3707 260.278 14.1831 260.29 14.0127 260.207C13.8424 260.124 13.7033 259.953 13.6259 259.73C13.5486 259.508 13.5395 259.253 13.6005 259.021C13.6615 258.79 13.7877 258.601 13.9513 258.496C14.1954 258.348 39.1823 243.088 56.0753 290.858C56.1146 290.967 56.1378 291.086 56.1434 291.207C56.149 291.328 56.1369 291.449 56.108 291.564C56.079 291.678 56.0337 291.784 55.9745 291.875C55.9154 291.966 55.8437 292.04 55.7634 292.093C55.6716 292.159 55.5688 292.19 55.4652 292.185Z" fill="#2C52B7"/>
<defs>
<linearGradient id="paint0_linear_618_167" x1="122.064" y1="309.273" x2="183.91" y2="309.273" gradientUnits="userSpaceOnUse">
<stop stop-color="#3C2CEF"/>
<stop offset="1" stop-color="#6332F0"/>
</linearGradient>
<linearGradient id="paint1_linear_618_167" x1="132.627" y1="256.204" x2="172.649" y2="256.204" gradientUnits="userSpaceOnUse">
<stop stop-color="#3C2CEF"/>
<stop offset="1" stop-color="#6332F0"/>
</linearGradient>
<linearGradient id="paint2_linear_618_167" x1="93.416" y1="234.938" x2="133.27" y2="234.938" gradientUnits="userSpaceOnUse">
<stop stop-color="#3C2CEF"/>
<stop offset="1" stop-color="#6332F0"/>
</linearGradient>
<linearGradient id="paint3_linear_618_167" x1="172.646" y1="234.884" x2="212.525" y2="234.884" gradientUnits="userSpaceOnUse">
<stop stop-color="#3C2CEF"/>
<stop offset="1" stop-color="#6332F0"/>
</linearGradient>
<linearGradient id="paint4_linear_618_167" x1="120.301" y1="61.4719" x2="184.91" y2="61.4719" gradientUnits="userSpaceOnUse">
<stop stop-color="#3C2CEF"/>
<stop offset="1" stop-color="#6332F0"/>
</linearGradient>
<linearGradient id="paint5_linear_618_167" x1="129.07" y1="135.512" x2="179.261" y2="135.512" gradientUnits="userSpaceOnUse">
<stop stop-color="#3C2CEF"/>
<stop offset="1" stop-color="#6332F0"/>
</linearGradient>
<linearGradient id="paint6_linear_618_167" x1="139.115" y1="135.546" x2="169.241" y2="135.546" gradientUnits="userSpaceOnUse">
<stop stop-color="#3C2CEF"/>
<stop offset="1" stop-color="#6332F0"/>
</linearGradient>
<linearGradient id="paint7_linear_618_167" x1="138.439" y1="135.545" x2="169.921" y2="135.545" gradientUnits="userSpaceOnUse">
<stop stop-color="#3C2CEF"/>
<stop offset="1" stop-color="#6332F0"/>
</linearGradient>
<linearGradient id="paint8_linear_618_167" x1="154.448" y1="283.769" x2="157.15" y2="283.769" gradientUnits="userSpaceOnUse">
<stop stop-color="#3C2CEF"/>
<stop offset="1" stop-color="#6332F0"/>
</linearGradient>
<linearGradient id="paint9_linear_618_167" x1="141.822" y1="296.872" x2="145.548" y2="296.872" gradientUnits="userSpaceOnUse">
<stop stop-color="#3C2CEF"/>
<stop offset="1" stop-color="#6332F0"/>
</linearGradient>
<linearGradient id="paint10_linear_618_167" x1="161.75" y1="304.415" x2="165.576" y2="304.415" gradientUnits="userSpaceOnUse">
<stop stop-color="#3C2CEF"/>
<stop offset="1" stop-color="#6332F0"/>
</linearGradient>
<linearGradient id="paint11_linear_618_167" x1="174.252" y1="361.654" x2="205.985" y2="361.654" gradientUnits="userSpaceOnUse">
<stop stop-color="#3C2CEF"/>
<stop offset="1" stop-color="#6332F0"/>
</linearGradient>
</defs>
</svg>
